<svg width="210" height="25" viewBox="0 0 210 25" version="1.1" xmlns="http://www.w3.org/2000/svg" xmlns:xlink="http://www.w3.org/1999/xlink"><title>GYM-logo</title><desc>Created with Sketch.</desc><g id="Page-1" stroke="none" stroke-width="1" fill="none" fill-rule="evenodd"><g id="GYM-logo"><path d="M12.025,24.084 C5.282,24.084 0,18.817 0,12.093 C0,5.425 5.395,0 12.025,0 C14.942,0 17.847,1.109 20.203,3.119 C20.303,3.219 20.363,3.353 20.363,3.489 C20.363,3.609 20.316,3.718 20.229,3.807 L18.118,6.02 C18.02,6.117 17.918,6.168 17.818,6.168 C17.714,6.168 17.601,6.114 17.482,6.009 C16.012,4.708 14.147,3.992 12.23,3.992 C7.933,3.992 4.435,7.611 4.435,12.06 C4.435,16.451 7.947,20.025 12.264,20.025 C14.222,20.025 15.731,19.42 16.376,19.161 L16.488,19.116 L16.488,15.925 L13.59,15.925 C13.324,15.925 13.123,15.739 13.123,15.493 L13.123,12.808 C13.123,12.533 13.315,12.341 13.59,12.341 L20.117,12.341 C20.347,12.341 20.549,12.56 20.549,12.808 L20.549,21.511 C20.549,21.677 20.481,21.812 20.35,21.909 C20.326,21.923 16.842,24.084 12.025,24.084" id="Fill-25" fill="#7B7C7B"/><path d="M32.324075,23.438 C32.037075,23.438 31.859075,23.196 31.859075,22.973 L31.859075,12.105 L24.076075,0.705 C23.983075,0.554 23.974075,0.372 24.056075,0.225 C24.136075,0.082 24.288075,0 24.472075,0 L27.939075,0 C28.092075,0 28.219075,0.074 28.337075,0.234 L33.921075,8.261 L39.508075,0.229 C39.625075,0.075 39.753075,0 39.906075,0 L43.408075,0 C43.591075,0 43.743075,0.082 43.823075,0.226 C43.905075,0.372 43.895075,0.554 43.797075,0.712 L35.917075,12.07 L35.917075,22.973 C35.917075,23.212 35.692075,23.438 35.453075,23.438 L32.324075,23.438" id="Fill-26" fill="#7B7C7B"/><path d="M58.8172343,24.118 C58.6252343,24.118 58.4962343,24.033 58.3992343,23.843 L52.3372343,10.384 L51.9652343,10.384 L49.9712343,23.421 C49.9502343,23.566 49.7572343,23.778 49.5362343,23.778 L46.4772343,23.778 C46.3142343,23.778 46.1852343,23.728 46.1032343,23.633 C46.0152343,23.532 45.9832343,23.383 46.0082343,23.201 L50.0522343,0.361 C50.0652343,0.271 50.1272343,0 50.4892343,0 L51.0322343,0 C51.2212343,0 51.3732343,0.088 51.4492343,0.24 L58.9742343,16.387 L59.3062343,16.387 L66.8332343,0.236 C66.9162343,0.072 67.0402343,0 67.2492343,0 L67.7912343,0 C68.1532343,0 68.2152343,0.271 68.2262343,0.354 L72.2392343,23.207 C72.2782343,23.388 72.2552343,23.532 72.1752343,23.632 C72.0982343,23.726 71.9662343,23.778 71.8032343,23.778 L68.7092343,23.778 C68.4852343,23.778 68.2842343,23.557 68.2382343,23.399 L66.2132343,10.384 L65.8402343,10.384 L59.8422343,23.851 C59.7952343,23.989 59.6682343,24.118 59.4302343,24.118 L58.8172343,24.118" id="Fill-27" fill="#7B7C7B"/><path d="M96.53,24.118 L82.319,8.514 L82.06,8.514 L82.027,8.693 L82.027,23.313 C82.027,23.536 81.849,23.778 81.56,23.778 L78.467,23.778 C78.226,23.778 78,23.552 78,23.313 L78,0.433 C78,0.202 78.219,0 78.467,0 L79.238,0 L93.381,15.026 L93.639,15.026 L93.674,14.847 L93.674,0.807 C93.674,0.582 93.851,0.34 94.139,0.34 L97.267,0.34 C97.507,0.34 97.732,0.567 97.732,0.807 L97.732,23.687 C97.732,23.916 97.515,24.118 97.267,24.118 L96.53,24.118" id="Fill-28" fill="#7B7C7B"/><path d="M134.631704,24.118 C130.239704,24.118 127.734704,21.95 127.277704,21.516 C126.981704,21.22 126.900704,21.14 127.140704,20.715 L128.361704,18.609 C128.512704,18.344 128.752704,18.305 128.882704,18.305 C129.020704,18.305 129.155704,18.348 129.251704,18.423 L129.357704,18.493 C131.359704,19.851 133.135704,20.568 134.495704,20.568 C136.331704,20.568 137.768704,19.34 137.768704,17.771 C137.768704,16.051 136.444704,14.78 133.339704,13.525 C130.643704,12.435 127.059704,10.505 127.059704,6.348 C127.059704,3.291 129.397704,0 134.530704,0 C138.058704,0 140.722704,1.868 141.220704,2.242 C141.346704,2.319 141.430704,2.451 141.465704,2.615 C141.504704,2.801 141.474704,2.988 141.384704,3.116 L140.091704,5.059 C139.915704,5.323 139.647704,5.495 139.410704,5.495 C139.317704,5.495 139.230704,5.469 139.151704,5.416 C138.001704,4.685 135.924704,3.517 134.325704,3.517 C132.340704,3.517 131.155704,4.817 131.155704,6.076 C131.155704,7.706 132.349704,8.858 135.278704,10.051 C138.736704,11.441 142.270704,13.42 142.270704,17.567 C142.270704,20.742 139.592704,24.118 134.631704,24.118" id="Fill-29" fill="#7B7C7B"/><path d="M149.467,23.438 C149.227,23.438 149,23.212 149,22.973 L149,0.467 C149,0.227 149.227,0 149.467,0 L152.629,0 C152.869,0 153.094,0.227 153.094,0.467 L153.094,22.973 C153.094,23.212 152.869,23.438 152.629,23.438 L149.467,23.438" id="Fill-30" fill="#7B7C7B"/><path d="M169.271,23.778 C164.072,23.778 160,19.751 160,14.609 L160,0.467 C160,0.227 160.226,0 160.466,0 L163.695,0 C163.983,0 164.162,0.242 164.162,0.467 L164.162,14.371 C164.162,17.47 166.31,19.718 169.271,19.718 C172.252,19.718 174.414,17.483 174.414,14.405 L174.414,0.467 C174.414,0.242 174.592,0 174.88,0 L178.111,0 C178.35,0 178.576,0.227 178.576,0.467 L178.576,14.609 C178.576,19.751 174.489,23.778 169.271,23.778" id="Fill-31" fill="#7B7C7B"/><path d="M195.817234,24.118 C195.624234,24.118 195.495234,24.033 195.399234,23.843 L189.337234,10.384 L188.965234,10.384 L186.971234,23.421 C186.950234,23.566 186.757234,23.778 186.536234,23.778 L183.477234,23.778 C183.314234,23.778 183.185234,23.728 183.103234,23.633 C183.015234,23.532 182.983234,23.383 183.008234,23.201 L187.052234,0.361 C187.065234,0.271 187.127234,0 187.489234,0 L188.032234,0 C188.221234,0 188.372234,0.088 188.449234,0.24 L195.974234,16.387 L196.306234,16.387 L203.833234,0.236 C203.915234,0.072 204.039234,0 204.248234,0 L204.791234,0 C205.153234,0 205.215234,0.271 205.226234,0.354 L209.239234,23.207 C209.278234,23.388 209.255234,23.532 209.175234,23.632 C209.098234,23.726 208.966234,23.778 208.803234,23.778 L205.709234,23.778 C205.485234,23.778 205.284234,23.557 205.238234,23.399 L203.213234,10.384 L202.840234,10.384 L196.842234,23.851 C196.795234,23.989 196.668234,24.118 196.430234,24.118 L195.817234,24.118" id="Fill-32" fill="#7B7C7B"/><path d="M111,15.55 L111.552,20.036 L116.042,19.485 L115.488,15 L111,15.55" id="Fill-34" fill="#EC8F2D"/><path d="M114.92,0.008 L111.623,0 L102,23.848 L106.234,23.848 L113.235,5.993 L120.244,23.848 L124.476,23.848 L114.92,0.008" id="Fill-35" fill="#EC8F2D"/></g></g></svg>